<?xml version="1.0" encoding="utf-8"?>
<!-- Generator: Adobe Illustrator 15.1.0, SVG Export Plug-In . SVG Version: 6.00 Build 0)  -->
<!DOCTYPE svg PUBLIC "-//W3C//DTD SVG 1.1//EN" "http://www.w3.org/Graphics/SVG/1.1/DTD/svg11.dtd">
<svg version="1.1" id="Слой_1" xmlns="http://www.w3.org/2000/svg" xmlns:xlink="http://www.w3.org/1999/xlink" x="0px" y="0px"
	 width="100px" height="100px" viewBox="0 0 100 100" enable-background="new 0 0 100 100" xml:space="preserve">
<path fill="#FFFFFF" d="M94.949,58.939c-0.252-2.396-2.229-4.271-4.672-4.344v-2.234c0-1.334-1.047-2.412-2.36-2.486v-2.237
	c0-3.114-1.985-5.766-4.753-6.778c0.012-0.101,0.029-0.2,0.029-0.304C83.193,20.95,67.244,5,47.639,5S12.083,20.95,12.083,40.556
	c0,0.104,0.018,0.204,0.031,0.304c-2.768,1.012-4.753,3.664-4.753,6.778v2.237C6.046,49.949,5,51.027,5,52.361v11.806
	c0,1.333,1.046,2.413,2.361,2.485v2.236c0,3.981,3.24,7.223,7.222,7.223h4.722c1.381,0,2.5-1.119,2.5-2.5V42.917
	c0-1.103-0.719-2.028-1.71-2.36c-0.25-0.083-0.512-0.14-0.79-0.14h-2.219C17.163,23.632,30.837,10,47.639,10
	c16.8,0,30.476,13.632,30.55,30.417h-2.217c-0.279,0-0.541,0.056-0.791,0.14c-0.99,0.332-1.709,1.257-1.709,2.36v30.694
	c0,1.382,1.118,2.5,2.5,2.5h4.721c3.982,0,7.224-3.239,7.224-7.223v-2.234c0.914-0.053,1.69-0.59,2.083-1.364v8.321
	c0,0.558-0.23,13.254-19.346,13.992c-0.771-1.252-2.09-2.113-3.622-2.274c-0.163-0.033-0.332-0.052-0.505-0.052h-7.084
	c-0.172,0-0.342,0.019-0.504,0.052c-2.44,0.257-4.356,2.303-4.356,4.812c0,2.508,1.916,4.553,4.356,4.811
	C59.104,94.982,59.271,95,59.443,95h7.084c0.173,0,0.342-0.018,0.505-0.051c1.563-0.165,2.899-1.061,3.665-2.354
	C94.702,91.732,95,73.797,95,73.611V59.443C95,59.271,94.982,59.104,94.949,58.939z M16.806,71.111h-2.222
	c-1.225,0-2.222-0.997-2.222-2.223v-21.25c0-1.225,0.997-2.222,2.227-2.222h2.218L16.806,71.111L16.806,71.111z M82.917,68.889
	c0,1.227-0.997,2.223-2.224,2.223h-2.221V45.417h2.221c1.227,0,2.224,0.997,2.224,2.222V68.889z"/>
</svg>
